<?xml version="1.0" standalone="no"?>
<!DOCTYPE svg PUBLIC "-//W3C//DTD SVG 20010904//EN"
 "http://www.w3.org/TR/2001/REC-SVG-20010904/DTD/svg10.dtd">
<svg version="1.0" xmlns="http://www.w3.org/2000/svg"
 width="300.000000pt" height="300.000000pt" viewBox="0 0 300.000000 300.000000"
 preserveAspectRatio="xMidYMid meet">
<metadata>
Created by potrace 1.11, written by Peter Selinger 2001-2013
</metadata>
<g transform="translate(0.000000,300.000000) scale(0.100000,-0.100000)"
fill="#000000" stroke="none">
<path d="M276 2533 c-3 -3 -6 -408 -6 -899 0 -842 1 -893 17 -898 10 -3 59 -7
108 -11 50 -3 101 -8 115 -10 14 -3 46 -7 72 -10 81 -9 220 -33 354 -61 100
-20 421 -117 500 -150 7 -3 10 265 10 893 l-1 898 -170 57 c-191 64 -403 118
-555 142 -160 26 -227 34 -338 42 -48 4 -90 8 -93 10 -3 2 -9 1 -13 -3z"/>
<path d="M2698 2535 c-1 -2 -43 -6 -93 -9 -49 -4 -101 -8 -115 -10 -24 -4
-100 -15 -150 -21 -86 -12 -232 -43 -375 -80 -147 -39 -397 -122 -406 -136 -7
-12 -6 -1784 1 -1783 3 1 68 22 145 47 130 43 297 90 355 101 14 2 59 11 100
20 83 17 99 20 215 36 44 6 94 13 110 15 17 3 71 7 120 11 50 4 97 8 105 9 13
2 15 110 18 897 2 763 0 897 -12 901 -8 3 -16 4 -18 2z"/>
<path d="M4 1373 l1 -898 605 -2 c539 -1 601 0 566 13 -22 8 -49 16 -61 18
-11 2 -52 13 -90 24 -39 11 -83 22 -100 26 -16 3 -61 12 -100 20 -164 35 -310
54 -550 71 -51 4 -85 11 -95 21 -13 13 -15 115 -15 807 l-1 792 -80 3 -80 3 0
-898z"/>
<path d="M2839 2263 c-1 -5 -2 -362 -3 -795 -1 -685 -3 -789 -16 -802 -9 -10
-44 -17 -95 -21 -173 -13 -327 -30 -410 -45 -27 -5 -66 -12 -85 -15 -105 -17
-427 -98 -439 -111 -2 -2 268 -4 600 -4 l605 0 0 900 0 900 -78 0 c-43 0 -78
-3 -79 -7z"/>
</g>
</svg>
