<?xml version="1.0" standalone="no"?>
<!DOCTYPE svg PUBLIC "-//W3C//DTD SVG 1.1//EN" "http://www.w3.org/Graphics/SVG/1.1/DTD/svg11.dtd">
<!--Generator: Xara Designer (www.xara.com), SVG filter version: 6.3.0.31-->
<svg fill="none" fill-rule="evenodd" stroke="black" stroke-width="0.501" stroke-linejoin="bevel" stroke-miterlimit="10" font-family="Times New Roman" font-size="16" style="font-variant-ligatures:none" xmlns:xlink="http://www.w3.org/1999/xlink" xmlns="http://www.w3.org/2000/svg" version="1.1" overflow="visible" width="224.498pt" height="189pt" viewBox="0 -189 224.498 189">
 <defs>
	</defs>
 <g id="Layer 1" transform="scale(1 -1)">
  <g id="Group" stroke="none">
   <path d="M 0,0 L 0,189 L 224.498,189 L 224.498,0 L 0,0 Z M 176.512,77.814 C 180.023,81.572 181.727,86.095 181.625,91.383 C 181.529,96.335 179.807,100.198 176.459,102.963 L 176.463,102.715 C 179.141,99.597 180.519,95.923 180.603,91.688 C 180.7,86.678 179.082,82.365 175.749,78.75 C 172.419,75.134 168.33,73.265 163.49,73.141 C 161.021,73.079 158.667,73.323 156.429,73.874 L 150.807,75.268 C 148.933,75.719 147.27,75.925 145.819,75.889 C 144.513,75.855 143.235,75.489 141.989,74.793 L 142.448,73.602 C 143.597,74.267 144.862,74.618 146.243,74.653 C 147.791,74.692 149.245,74.535 150.61,74.183 L 156.451,72.712 C 158.569,72.157 160.935,71.911 163.549,71.979 C 168.681,72.109 173.001,74.054 176.512,77.814 Z M 67.977,72.495 L 62.523,81.254 L 63.432,99.946 C 64.3,99.836 65.368,99.741 66.64,99.668 C 74.284,99.223 79.739,99.995 83.008,101.985 C 87.331,104.607 89.651,109.192 89.969,115.739 C 90.11,118.635 89.775,121.25 88.965,123.582 C 88.154,125.913 87.012,127.576 85.537,128.57 C 87.022,126.244 88.02,124.196 88.535,122.427 C 89.047,120.657 89.248,118.595 89.134,116.243 C 88.857,110.569 87.096,106.451 83.849,103.886 C 80.604,101.323 75.769,100.226 69.343,100.6 C 66.902,100.742 64.603,100.952 62.445,101.229 L 61.453,80.817 L 65.908,73.841 L 48.315,74.864 L 49.264,73.583 L 67.977,72.495 Z M 174.301,80.332 C 177.232,83.495 178.652,87.346 178.563,91.885 C 178.407,100.023 173.935,105.184 165.15,107.368 L 158.981,108.915 C 152.824,110.445 149.702,113.538 149.61,118.188 C 149.564,120.679 150.382,122.769 152.067,124.46 C 153.754,126.15 155.892,127.028 158.482,127.094 C 161.291,127.166 163.818,126.109 166.063,123.924 C 166.952,123.061 167.625,122.15 168.079,121.192 C 168.533,120.235 169.122,118.518 169.848,116.045 C 169.902,115.88 169.978,115.647 170.082,115.345 L 170.258,115.599 C 170.723,116.551 171.656,119.123 173.05,123.313 C 173.759,125.436 174.724,127.481 175.946,129.451 L 175.543,129.648 C 174.156,128.672 172.872,128.169 171.685,128.138 C 170.838,128.117 169.526,128.36 167.748,128.868 C 163.949,129.935 160.633,130.431 157.802,130.359 C 153.397,130.247 149.847,128.793 147.152,125.997 C 144.458,123.201 143.153,119.615 143.238,115.241 C 143.321,111.008 144.414,107.727 146.517,105.397 C 148.62,103.07 151.969,101.452 156.564,100.544 C 162.521,99.369 166.47,98.029 168.412,96.527 C 171.117,94.409 172.501,91.675 172.567,88.326 C 172.623,85.42 171.711,83.084 169.834,81.319 C 167.954,79.555 165.393,78.63 162.149,78.548 C 158.035,78.443 154.681,79.561 152.094,81.904 C 149.505,84.248 147.916,87.586 147.325,91.92 L 146.666,92.109 C 145.548,87.401 143.537,82.42 140.635,77.167 L 140.937,76.594 C 142.488,77.714 144.004,78.292 145.481,78.33 C 146.593,78.359 148.014,78.16 149.741,77.734 L 154.013,76.638 C 157.444,75.756 160.539,75.351 163.299,75.42 C 167.704,75.534 171.373,77.17 174.301,80.332 Z M 63.862,76.457 L 59.547,81.7 L 60.612,103.605 L 65.207,103.338 C 70.958,103.003 75.181,103.287 77.87,104.189 C 80.563,105.091 82.7,106.691 84.285,108.99 C 85.87,111.288 86.74,114.052 86.898,117.279 C 87.156,122.591 85.44,126.85 81.751,130.06 C 78.854,132.619 73.844,134.105 66.723,134.519 L 49.952,135.495 L 54.242,129.754 L 53.165,107.578 L 52.568,107.613 C 49.205,107.809 46.683,106.261 45,102.969 L 45.341,102.269 C 47.009,103.746 49.177,104.406 51.842,104.251 C 52.042,104.239 52.424,104.172 52.993,104.049 L 52.885,101.83 L 52.584,101.803 L 51.241,101.88 C 49.919,101.957 48.398,101.471 46.675,100.422 L 46.971,99.587 C 48.661,100.427 50.4,100.795 52.194,100.69 C 52.318,100.684 52.529,100.655 52.826,100.609 L 51.943,82.459 L 46.494,77.467 L 63.862,76.457 Z M 158.243,79.611 L 158.237,79.944 C 154.297,81.92 151.833,85.389 150.84,90.348 L 149.864,90.114 C 150.919,84.493 153.712,80.991 158.243,79.611 Z M 170.88,90.983 L 171.132,91.156 C 170.544,92.803 169.579,94.016 168.246,94.799 C 166.909,95.581 164.247,96.491 160.256,97.525 L 154.377,99.035 C 150.484,100.016 148.122,101.313 147.291,102.925 L 146.041,103.683 C 146.416,101.948 147.506,100.598 149.316,99.634 C 151.128,98.67 154.66,97.562 159.914,96.309 C 163.54,95.433 165.996,94.679 167.278,94.048 C 168.563,93.415 169.764,92.394 170.88,90.983 Z M 63.789,107.278 L 64.717,126.377 L 68.564,126.152 C 71.078,126.007 73.012,125.584 74.364,124.885 C 75.717,124.186 76.815,123.04 77.662,121.447 C 76.845,123.642 75.798,125.119 74.524,125.874 C 73.25,126.629 71.019,127.1 67.831,127.286 L 63.724,127.524 L 62.742,107.338 C 62.516,107.322 62.354,107.317 62.254,107.322 L 61.285,107.424 L 60.799,107.452 L 61.902,130.126 C 63.601,130.148 65.037,130.126 66.206,130.057 C 70.763,129.792 74.022,128.65 75.984,126.629 C 77.947,124.609 78.826,121.501 78.621,117.306 C 78.439,113.566 77.155,110.889 74.765,109.271 C 72.378,107.656 68.719,106.99 63.789,107.278 Z M 156.771,110.477 L 156.946,110.815 L 156.651,111.015 C 154.165,113.112 152.9,115.184 152.861,117.231 C 152.826,119.114 153.401,120.678 154.586,121.927 C 155.773,123.176 157.287,123.824 159.125,123.871 C 162.174,123.95 165.064,122.403 167.788,119.232 L 168.04,119.405 C 167.276,121.215 166.107,122.603 164.527,123.573 C 162.946,124.544 161.116,125.002 159.033,124.949 C 156.854,124.894 155.1,124.17 153.77,122.78 C 152.442,121.39 151.798,119.613 151.84,117.455 C 151.9,114.355 153.545,112.03 156.771,110.477 Z M 172.567,114.411 L 172.745,114.707 C 172.953,115.182 173.865,117.476 175.481,121.588 C 176.148,123.348 176.96,125.198 177.915,127.134 L 178.23,127.764 L 177.277,128.28 L 177.101,127.945 L 174.739,122.401 C 173.466,119.433 172.494,117.027 171.827,115.181 L 171.689,114.804 L 172.567,114.411 Z" marker-start="none" marker-end="none"/>
   <path d="M 116.258,18.858 L 116.258,153.295 L 127.026,157.059 C 149.74,165.049 173.804,169.985 198.337,171.693 L 204.454,172.125 L 204.454,37.154 L 197.863,36.703 C 172.492,34.929 147.605,29.835 124.099,21.602 L 116.258,18.858 Z M 176.512,77.814 C 180.023,81.572 181.727,86.095 181.625,91.383 C 181.529,96.335 179.807,100.198 176.459,102.963 L 176.463,102.715 C 179.141,99.597 180.519,95.923 180.603,91.688 C 180.7,86.678 179.082,82.365 175.749,78.75 C 172.419,75.134 168.33,73.265 163.49,73.141 C 161.021,73.079 158.667,73.323 156.429,73.874 L 150.807,75.268 C 148.933,75.719 147.27,75.925 145.819,75.889 C 144.513,75.855 143.235,75.489 141.989,74.793 L 142.448,73.602 C 143.597,74.267 144.862,74.618 146.243,74.653 C 147.791,74.692 149.245,74.535 150.61,74.183 L 156.451,72.712 C 158.569,72.157 160.935,71.911 163.549,71.979 C 168.681,72.109 173.001,74.054 176.512,77.814 Z M 174.301,80.332 C 177.232,83.495 178.652,87.346 178.563,91.885 C 178.407,100.023 173.935,105.184 165.15,107.368 L 158.981,108.915 C 152.824,110.445 149.702,113.538 149.61,118.188 C 149.564,120.679 150.382,122.769 152.067,124.46 C 153.754,126.15 155.892,127.028 158.482,127.094 C 161.291,127.166 163.818,126.109 166.063,123.924 C 166.952,123.061 167.625,122.15 168.079,121.192 C 168.533,120.235 169.122,118.518 169.848,116.045 C 169.902,115.88 169.978,115.647 170.082,115.345 L 170.258,115.599 C 170.723,116.551 171.656,119.123 173.05,123.313 C 173.759,125.436 174.724,127.481 175.946,129.451 L 175.543,129.648 C 174.156,128.672 172.872,128.169 171.685,128.138 C 170.838,128.117 169.526,128.36 167.748,128.868 C 163.949,129.935 160.633,130.431 157.802,130.359 C 153.397,130.247 149.847,128.793 147.152,125.997 C 144.458,123.201 143.153,119.615 143.238,115.241 C 143.321,111.008 144.414,107.727 146.517,105.397 C 148.62,103.07 151.969,101.452 156.564,100.544 C 162.521,99.369 166.47,98.029 168.412,96.527 C 171.117,94.409 172.501,91.675 172.567,88.326 C 172.623,85.42 171.711,83.084 169.834,81.319 C 167.954,79.555 165.393,78.63 162.149,78.548 C 158.035,78.443 154.681,79.561 152.094,81.904 C 149.505,84.248 147.916,87.586 147.325,91.92 L 146.666,92.109 C 145.548,87.401 143.537,82.42 140.635,77.167 L 140.937,76.594 C 142.488,77.714 144.004,78.292 145.481,78.33 C 146.593,78.359 148.014,78.16 149.741,77.734 L 154.013,76.638 C 157.444,75.756 160.539,75.351 163.299,75.42 C 167.704,75.534 171.373,77.17 174.301,80.332 Z M 158.243,79.611 L 158.237,79.944 C 154.297,81.92 151.833,85.389 150.84,90.348 L 149.864,90.114 C 150.919,84.493 153.712,80.991 158.243,79.611 Z M 170.88,90.983 L 171.132,91.156 C 170.544,92.803 169.579,94.016 168.246,94.799 C 166.909,95.581 164.247,96.491 160.256,97.525 L 154.377,99.035 C 150.484,100.016 148.122,101.313 147.291,102.925 L 146.041,103.683 C 146.416,101.948 147.506,100.598 149.316,99.634 C 151.128,98.67 154.66,97.562 159.914,96.309 C 163.54,95.433 165.996,94.679 167.278,94.048 C 168.563,93.415 169.764,92.394 170.88,90.983 Z M 156.771,110.477 L 156.946,110.815 L 156.651,111.015 C 154.165,113.112 152.9,115.184 152.861,117.231 C 152.826,119.114 153.401,120.678 154.586,121.927 C 155.773,123.176 157.287,123.824 159.125,123.871 C 162.174,123.95 165.064,122.403 167.788,119.232 L 168.04,119.405 C 167.276,121.215 166.107,122.603 164.527,123.573 C 162.946,124.544 161.116,125.002 159.033,124.949 C 156.854,124.894 155.1,124.17 153.77,122.78 C 152.442,121.39 151.798,119.613 151.84,117.455 C 151.9,114.355 153.545,112.03 156.771,110.477 Z M 172.567,114.411 L 172.745,114.707 C 172.953,115.182 173.865,117.476 175.481,121.588 C 176.148,123.348 176.96,125.198 177.915,127.134 L 178.23,127.764 L 177.277,128.28 L 177.101,127.945 L 174.739,122.401 C 173.466,119.433 172.494,117.027 171.827,115.181 L 171.689,114.804 L 172.567,114.411 Z" fill="#7f0000" stroke-linejoin="miter" fill-rule="nonzero" marker-start="none" marker-end="none"/>
   <path d="M 134.259,17.708 C 135.488,18.095 136.692,18.464 137.894,18.832 C 139.466,19.311 141.043,19.776 142.629,20.226 C 143.864,20.562 145.105,20.9 146.344,21.238 C 147.928,21.663 149.508,22.068 151.111,22.467 C 152.362,22.777 153.616,23.083 154.871,23.373 C 156.484,23.753 158.099,24.116 159.722,24.455 C 160.965,24.722 162.212,24.987 163.462,25.237 C 165.13,25.572 166.81,25.878 168.489,26.178 C 169.716,26.397 170.918,26.625 172.122,26.827 C 173.886,27.121 175.657,27.38 177.425,27.64 C 178.572,27.81 179.715,27.991 180.866,28.146 C 182.841,28.409 184.822,28.636 186.807,28.858 C 187.757,28.97 188.706,29.099 189.661,29.195 C 192.605,29.5 195.561,29.756 198.525,29.962 L 208.792,30.67 C 210.876,30.815 212.479,32.285 212.472,34.046 L 212.472,152.171 L 224.498,152.171 L 224.498,17.164 L 132.615,17.164 C 133.163,17.344 133.709,17.531 134.259,17.708 Z" fill="#7f0000" stroke-linejoin="miter" fill-rule="nonzero" marker-start="none" marker-end="none"/>
   <path d="M 108.24,18.858 L 100.847,21.447 C 77.38,29.725 52.515,34.85 27.159,36.634 L 20.044,37.144 L 20.044,172.125 L 26.161,171.693 C 50.7,169.985 74.767,165.047 97.484,157.056 L 108.24,153.295 L 108.24,18.858 Z M 67.977,72.495 L 62.523,81.254 L 63.432,99.946 C 64.3,99.836 65.368,99.741 66.64,99.668 C 74.284,99.223 79.739,99.995 83.008,101.985 C 87.331,104.607 89.651,109.192 89.969,115.739 C 90.11,118.635 89.775,121.25 88.965,123.582 C 88.154,125.913 87.012,127.576 85.537,128.57 C 87.022,126.244 88.02,124.196 88.535,122.427 C 89.047,120.657 89.248,118.595 89.134,116.243 C 88.857,110.569 87.096,106.451 83.849,103.886 C 80.604,101.323 75.769,100.226 69.343,100.6 C 66.902,100.742 64.603,100.952 62.445,101.229 L 61.453,80.817 L 65.908,73.841 L 48.315,74.864 L 49.264,73.583 L 67.977,72.495 Z M 63.862,76.457 L 59.547,81.7 L 60.612,103.605 L 65.207,103.338 C 70.958,103.003 75.181,103.287 77.87,104.189 C 80.563,105.091 82.7,106.691 84.285,108.99 C 85.87,111.288 86.74,114.052 86.898,117.279 C 87.156,122.591 85.44,126.85 81.751,130.06 C 78.854,132.619 73.844,134.105 66.723,134.519 L 49.952,135.495 L 54.242,129.754 L 53.165,107.578 L 52.568,107.613 C 49.205,107.809 46.683,106.261 45,102.969 L 45.341,102.269 C 47.009,103.746 49.177,104.406 51.842,104.251 C 52.042,104.239 52.424,104.172 52.993,104.049 L 52.885,101.83 L 52.584,101.803 L 51.241,101.88 C 49.919,101.957 48.398,101.471 46.675,100.422 L 46.971,99.587 C 48.661,100.427 50.4,100.795 52.194,100.69 C 52.318,100.684 52.529,100.655 52.826,100.609 L 51.943,82.459 L 46.494,77.467 L 63.862,76.457 Z M 63.789,107.278 L 64.717,126.377 L 68.564,126.152 C 71.078,126.007 73.012,125.584 74.364,124.885 C 75.717,124.186 76.815,123.04 77.662,121.447 C 76.845,123.642 75.798,125.119 74.524,125.874 C 73.25,126.629 71.019,127.1 67.831,127.286 L 63.724,127.524 L 62.742,107.338 C 62.516,107.322 62.354,107.317 62.254,107.322 L 61.285,107.424 L 60.799,107.452 L 61.902,130.126 C 63.601,130.148 65.037,130.126 66.206,130.057 C 70.763,129.792 74.022,128.65 75.984,126.629 C 77.947,124.609 78.826,121.501 78.621,117.306 C 78.439,113.566 77.155,110.889 74.765,109.271 C 72.378,107.656 68.719,106.99 63.789,107.278 Z" fill="#7f0000" stroke-linejoin="miter" fill-rule="nonzero" marker-start="none" marker-end="none"/>
   <path d="M 0,17.171 L 0,152.171 L 12.026,152.171 L 12.026,34.046 C 12.018,32.289 13.614,30.82 15.695,30.67 L 26.486,29.901 C 29.426,29.69 32.366,29.435 35.306,29.135 C 36.287,29.041 37.262,28.909 38.245,28.798 C 40.188,28.578 42.132,28.359 44.07,28.099 C 45.223,27.927 46.374,27.758 47.525,27.589 C 49.281,27.33 51.037,27.07 52.785,26.78 C 53.987,26.577 55.191,26.355 56.392,26.135 C 58.08,25.831 59.769,25.521 61.449,25.183 C 62.678,24.941 63.882,24.681 65.084,24.42 C 66.74,24.063 68.392,23.698 70.04,23.314 C 71.242,23.03 72.444,22.732 73.648,22.436 C 75.282,22.04 76.915,21.617 78.541,21.167 C 79.733,20.847 80.923,20.519 82.11,20.182 C 83.75,19.718 85.377,19.234 87.005,18.736 C 88.16,18.382 89.317,18.031 90.464,17.663 C 90.961,17.509 91.455,17.333 91.948,17.171 L 0,17.171 Z" fill="#7f0000" stroke-linejoin="miter" fill-rule="nonzero" marker-start="none" marker-end="none"/>
  </g>
 </g>
</svg>
